<svg version="1.1" id="Layer_1" xmlns="http://www.w3.org/2000/svg" xmlns:xlink="http://www.w3.org/1999/xlink" x="0px" y="0px"
	 width="100%" viewBox="0 0 3677 3677" enable-background="new 0 0 3677 3677" xml:space="preserve">
<path fill="#FFFFFF" opacity="1.000000" stroke="none" 
	d="
M2138.000000,3680.000000 
	C1425.333374,3680.000000 713.666687,3680.000000 2.000000,3680.000000 
	C2.000000,2454.000000 2.000000,1228.000000 2.000000,2.000000 
	C1228.000000,2.000000 2454.000000,2.000000 3680.000000,2.000000 
	C3680.000000,1228.000000 3680.000000,2454.000000 3680.000000,3680.000000 
	C3166.333252,3680.000000 2652.666748,3680.000000 2138.000000,3680.000000 
M3210.007080,2154.960449 
	C3210.613525,2152.041260 3211.274170,2149.132080 3211.818604,2146.201416 
	C3220.905762,2097.260010 3228.394287,2048.125488 3232.550293,1998.458252 
	C3235.710449,1960.691040 3238.053955,1922.911011 3238.173340,1885.038818 
	C3238.252686,1859.770386 3237.477295,1834.472412 3236.189453,1809.233276 
	C3234.786865,1781.748535 3232.585205,1754.296997 3230.309326,1726.865967 
	C3226.793457,1684.485718 3219.860840,1642.592041 3211.782715,1600.865967 
	C3196.264160,1520.708252 3173.366211,1442.694336 3143.955566,1366.569580 
	C3120.063232,1304.727295 3091.714844,1244.997437 3059.231201,1187.189575 
	C3028.541992,1132.575806 2994.259277,1080.338379 2956.614258,1030.307861 
	C2913.554688,973.081604 2866.552490,919.278809 2814.693848,869.851318 
	C2791.586182,847.826843 2768.271240,825.943359 2743.987305,805.242859 
	C2654.956787,729.350037 2557.825928,665.711182 2452.612061,614.427124 
	C2392.174072,584.968018 2330.015625,559.934265 2266.000244,539.340698 
	C2193.974365,516.170166 2120.612061,498.841797 2045.749146,488.114990 
	C2016.162354,483.875610 1986.358643,481.109650 1956.624023,477.953156 
	C1922.208862,474.299805 1887.661011,473.039856 1853.064697,472.853485 
	C1816.786133,472.658051 1780.514771,472.745178 1744.342896,476.018250 
	C1714.237305,478.742401 1684.048706,480.853241 1654.070923,484.620605 
	C1593.653320,492.213348 1534.068481,504.309906 1475.209839,519.986572 
	C1387.524536,543.341187 1303.006714,575.176880 1221.545654,615.051453 
	C1157.803955,646.252441 1096.933228,682.385437 1038.619019,722.875610 
	C971.487305,769.488159 908.985962,821.671997 851.038330,879.206848 
	C827.693909,902.385010 805.548645,926.828979 783.697510,951.442566 
	C710.250793,1034.174438 648.519714,1125.073730 597.103943,1222.937012 
	C558.667297,1296.096313 527.121155,1372.168579 502.202606,1451.027466 
	C473.184601,1542.860107 453.918579,1636.681030 444.550049,1732.448120 
	C440.932373,1769.428589 438.917206,1806.635986 437.942200,1843.786499 
	C436.790527,1887.667236 437.268768,1931.604614 441.648438,1975.382812 
	C444.388245,2002.769409 446.122467,2030.291260 449.910187,2057.529785 
	C454.706665,2092.022217 460.180756,2126.479492 467.058960,2160.610107 
	C479.608093,2222.881104 497.166199,2283.830811 518.475220,2343.698486 
	C543.061035,2412.772705 572.980652,2479.445068 608.119690,2543.773438 
	C632.224609,2587.901123 658.717896,2630.548096 687.369873,2671.890381 
	C732.179993,2736.547363 782.248779,2796.850586 837.204346,2853.051025 
	C857.668396,2873.978760 879.216125,2893.879395 900.784119,2913.688232 
	C951.844849,2960.583984 1006.780640,3002.579590 1064.489258,3040.922852 
	C1126.944336,3082.419678 1192.328857,3118.748779 1260.688477,3149.569580 
	C1363.309937,3195.837891 1469.920166,3229.578125 1580.679932,3249.961670 
	C1625.813721,3258.267578 1671.215820,3264.503418 1716.996216,3268.206299 
	C1752.478882,3271.076172 1787.954956,3273.265381 1823.558105,3273.184570 
	C1836.182495,3273.156006 1848.817749,3273.517822 1861.428833,3273.109619 
	C1888.346313,3272.238525 1915.303223,3271.691162 1942.149170,3269.719482 
	C1985.228149,3266.555420 2028.084961,3261.346680 2070.731445,3254.196045 
	C2136.792969,3243.119873 2201.744385,3227.572754 2265.496094,3207.143066 
	C2360.492676,3176.700684 2451.218262,3136.529297 2537.634277,3086.625732 
	C2641.911621,3026.406738 2736.669434,2953.693115 2822.511475,2869.369873 
	C2842.679199,2849.559082 2862.086670,2828.911133 2880.953125,2807.850342 
	C2928.715576,2754.532959 2972.266357,2697.942383 3011.337646,2637.906738 
	C3046.786865,2583.436035 3078.368896,2526.861816 3106.043213,2468.056152 
	C3137.822266,2400.528809 3164.309814,2331.015137 3184.217773,2259.105469 
	C3193.605225,2225.195801 3201.268555,2190.808594 3210.007080,2154.960449 
z"/>
<path fill="#D0B503" opacity="1.000000" stroke="none" 
	d="
M3209.860107,2155.799316 
	C3201.268555,2190.808594 3193.605225,2225.195801 3184.217773,2259.105469 
	C3164.309814,2331.015137 3137.822266,2400.528809 3106.043213,2468.056152 
	C3078.368896,2526.861816 3046.786865,2583.436035 3011.337646,2637.906738 
	C2972.266357,2697.942383 2928.715576,2754.532959 2880.953125,2807.850342 
	C2862.086670,2828.911133 2842.679199,2849.559082 2822.511475,2869.369873 
	C2736.669434,2953.693115 2641.911621,3026.406738 2537.634277,3086.625732 
	C2451.218262,3136.529297 2360.492676,3176.700684 2265.496094,3207.143066 
	C2201.744385,3227.572754 2136.792969,3243.119873 2070.731445,3254.196045 
	C2028.084961,3261.346680 1985.228149,3266.555420 1942.149170,3269.719482 
	C1915.303223,3271.691162 1888.346313,3272.238525 1861.428833,3273.109619 
	C1848.817749,3273.517822 1836.182495,3273.156006 1823.558105,3273.184570 
	C1787.954956,3273.265381 1752.478882,3271.076172 1716.996216,3268.206299 
	C1671.215820,3264.503418 1625.813721,3258.267578 1580.679932,3249.961670 
	C1469.920166,3229.578125 1363.309937,3195.837891 1260.688477,3149.569580 
	C1192.328857,3118.748779 1126.944336,3082.419678 1064.489258,3040.922852 
	C1006.780640,3002.579590 951.844849,2960.583984 900.784119,2913.688232 
	C879.216125,2893.879395 857.668396,2873.978760 837.204346,2853.051025 
	C782.248779,2796.850586 732.179993,2736.547363 687.369873,2671.890381 
	C658.717896,2630.548096 632.224609,2587.901123 608.119690,2543.773438 
	C572.980652,2479.445068 543.061035,2412.772705 518.475220,2343.698486 
	C497.166199,2283.830811 479.608093,2222.881104 467.058960,2160.610107 
	C460.180756,2126.479492 454.706665,2092.022217 449.910187,2057.529785 
	C446.122467,2030.291260 444.388245,2002.769409 441.648438,1975.382812 
	C437.268768,1931.604614 436.790527,1887.667236 437.942200,1843.786499 
	C438.917206,1806.635986 440.932373,1769.428589 444.550049,1732.448120 
	C453.918579,1636.681030 473.184601,1542.860107 502.202606,1451.027466 
	C527.121155,1372.168579 558.667297,1296.096313 597.103943,1222.937012 
	C648.519714,1125.073730 710.250793,1034.174438 783.697510,951.442566 
	C805.548645,926.828979 827.693909,902.385010 851.038330,879.206848 
	C908.985962,821.671997 971.487305,769.488159 1038.619019,722.875610 
	C1096.933228,682.385437 1157.803955,646.252441 1221.545654,615.051453 
	C1303.006714,575.176880 1387.524536,543.341187 1475.209839,519.986572 
	C1534.068481,504.309906 1593.653320,492.213348 1654.070923,484.620605 
	C1684.048706,480.853241 1714.237305,478.742401 1744.342896,476.018250 
	C1780.514771,472.745178 1816.786133,472.658051 1853.064697,472.853485 
	C1887.661011,473.039856 1922.208862,474.299805 1956.624023,477.953156 
	C1986.358643,481.109650 2016.162354,483.875610 2045.749146,488.114990 
	C2120.612061,498.841797 2193.974365,516.170166 2266.000244,539.340698 
	C2330.015625,559.934265 2392.174072,584.968018 2452.612061,614.427124 
	C2557.825928,665.711182 2654.956787,729.350037 2743.987305,805.242859 
	C2768.271240,825.943359 2791.586182,847.826843 2814.693848,869.851318 
	C2866.552490,919.278809 2913.554688,973.081604 2956.614258,1030.307861 
	C2994.259277,1080.338379 3028.541992,1132.575806 3059.231201,1187.189575 
	C3091.714844,1244.997437 3120.063232,1304.727295 3143.955566,1366.569580 
	C3173.366211,1442.694336 3196.264160,1520.708252 3211.782715,1600.865967 
	C3219.860840,1642.592041 3226.793457,1684.485718 3230.309326,1726.865967 
	C3232.585205,1754.296997 3234.786865,1781.748535 3236.189453,1809.233276 
	C3237.477295,1834.472412 3238.252686,1859.770386 3238.173340,1885.038818 
	C3238.053955,1922.911011 3235.710449,1960.691040 3232.550293,1998.458252 
	C3228.394287,2048.125488 3220.905762,2097.260010 3211.818604,2146.201416 
	C3211.274170,2149.132080 3210.613525,2152.041260 3209.860107,2155.799316 
M610.246338,2264.709717 
	C610.804077,2266.275879 611.379639,2267.836182 611.916931,2269.409424 
	C628.400024,2317.667480 646.841492,2365.184082 669.645386,2410.800049 
	C699.475769,2470.470947 737.780640,2524.475830 783.035583,2573.454346 
	C831.893738,2626.332520 887.580811,2670.198975 953.170959,2700.827393 
	C998.254944,2721.880127 1045.577026,2734.671875 1095.012695,2739.692871 
	C1123.274658,2742.563232 1151.620605,2742.631348 1179.837036,2739.537354 
	C1199.326172,2737.400146 1218.968140,2735.175537 1238.014160,2730.729736 
	C1332.928101,2708.574707 1411.537109,2659.450439 1475.051025,2585.679199 
	C1533.908936,2517.315918 1566.315430,2437.838867 1575.632812,2348.527832 
	C1579.446411,2311.974121 1579.207397,2275.321533 1577.420898,2238.693604 
	C1576.791016,2225.778564 1575.395630,2212.730957 1572.634888,2200.119385 
	C1559.945557,2142.150879 1535.546143,2089.099609 1502.917480,2039.797241 
	C1447.723022,1956.397827 1373.658813,1894.418457 1285.237061,1848.736572 
	C1271.080933,1841.422852 1257.158203,1833.342651 1244.158569,1824.157837 
	C1177.537476,1777.088135 1123.477051,1718.622681 1085.116943,1646.223755 
	C1064.686157,1607.663452 1051.954834,1566.516357 1042.880005,1523.941284 
	C1030.093994,1463.955200 1023.674744,1403.664917 1029.725098,1342.357300 
	C1034.743896,1291.502563 1047.949951,1242.939331 1069.546753,1196.640259 
	C1105.085449,1120.453003 1158.784790,1058.950806 1223.504761,1006.393372 
	C1248.883057,985.784363 1275.571777,966.984985 1303.428345,949.883789 
	C1308.106934,947.011475 1310.330688,943.713745 1310.999878,938.157959 
	C1312.590210,924.953674 1314.478638,911.736755 1317.205200,898.725769 
	C1335.747925,810.242371 1374.827881,731.705566 1432.445312,662.232117 
	C1436.623901,657.193787 1440.811035,652.162476 1446.262085,645.601868 
	C1441.214844,647.056152 1438.046509,647.820068 1434.978149,648.874634 
	C1302.931641,694.257935 1178.663574,755.329102 1063.104248,833.823608 
	C998.689575,877.577698 938.885437,926.880310 884.943848,983.189453 
	C789.385437,1082.941772 715.723755,1197.224365 660.192993,1323.310425 
	C643.838440,1360.444336 630.443359,1398.872437 615.262939,1436.534302 
	C584.451111,1512.976685 566.285828,1592.656860 554.315735,1673.889526 
	C548.634338,1712.445923 545.299805,1751.256226 543.334717,1790.213135 
	C540.408264,1848.228394 541.654053,1906.137329 546.650635,1963.953979 
	C550.263611,2005.759888 556.132629,2047.295898 563.969299,2088.542236 
	C575.231873,2147.819336 590.390198,2206.066406 610.246338,2264.709717 
M3098.062744,1596.854492 
	C3097.975342,1595.859985 3097.977539,1594.848022 3097.787598,1593.873535 
	C3088.282471,1545.178589 3075.900146,1497.258423 3060.013672,1450.221680 
	C3045.077393,1405.998169 3027.495361,1362.872559 3007.173340,1320.889771 
	C2969.317871,1242.685547 2923.944580,1169.027710 2870.270996,1100.724731 
	C2838.604492,1060.427490 2806.390137,1020.431091 2772.252686,982.238831 
	C2731.121582,936.222473 2684.608643,895.657898 2635.757812,857.882263 
	C2590.912354,823.203857 2544.020264,791.600952 2494.945312,763.173035 
	C2435.459229,728.714233 2373.646484,699.217834 2309.416504,674.777405 
	C2239.325195,648.106750 2167.558594,627.218201 2093.769287,613.659302 
	C2065.358398,608.438843 2036.820190,603.711914 2008.178589,600.006775 
	C1981.499390,596.555481 1954.646484,594.062256 1927.791504,592.496277 
	C1911.577393,591.550781 1895.215942,593.299683 1878.916382,593.622925 
	C1842.897827,594.337158 1807.362061,599.135376 1772.023926,605.808289 
	C1712.121582,617.119751 1654.863892,635.975830 1601.220093,665.261658 
	C1555.817993,690.048157 1515.410278,721.053955 1480.754517,759.680664 
	C1446.319580,798.061401 1420.419312,841.589722 1400.109985,888.691406 
	C1381.331299,932.243286 1371.826782,978.068787 1368.559937,1025.113281 
	C1366.109497,1060.401001 1368.247437,1095.658691 1374.637085,1130.529297 
	C1383.649048,1179.709717 1400.441040,1226.159912 1424.073242,1270.192505 
	C1447.556274,1313.947388 1479.746948,1350.590332 1516.849365,1383.061035 
	C1544.746704,1407.475586 1575.291992,1428.300781 1607.666992,1446.343628 
	C1630.336792,1458.977783 1652.714111,1472.405151 1677.718872,1480.107666 
	C1732.917603,1497.111572 1789.329102,1503.745483 1847.089600,1500.490845 
	C1872.736450,1499.045776 1898.173950,1496.366211 1923.271240,1491.428345 
	C1988.551514,1478.584717 2049.584717,1454.360840 2106.588867,1420.157104 
	C2130.849854,1405.600220 2154.547119,1390.254395 2180.884277,1379.337769 
	C2243.313721,1353.460815 2307.818848,1338.189697 2375.673096,1337.413940 
	C2423.036865,1336.872437 2469.062012,1343.643066 2514.165527,1358.084717 
	C2563.434082,1373.860107 2611.489014,1392.239014 2656.041992,1418.961426 
	C2706.899170,1449.465088 2750.744629,1487.789185 2786.644531,1535.087646 
	C2827.929932,1589.481689 2855.041016,1650.535522 2872.005859,1716.386963 
	C2885.596191,1769.140747 2891.286865,1822.959229 2893.658691,1877.206665 
	C2893.898438,1882.686890 2895.368408,1886.161255 2900.002197,1889.532715 
	C2927.868164,1909.807495 2952.391113,1933.707397 2975.020996,1959.661377 
	C3019.309326,2010.456177 3052.526123,2067.728027 3075.985840,2130.787109 
	C3078.335938,2137.103760 3080.821045,2143.369629 3083.243408,2149.658936 
	C3085.394775,2147.903320 3085.965088,2146.466064 3086.222412,2144.974609 
	C3092.151123,2110.595459 3098.719727,2076.308105 3103.729492,2041.794556 
	C3107.593506,2015.176025 3109.911377,1988.307251 3112.151123,1961.485840 
	C3114.475586,1933.652954 3116.437012,1905.764771 3117.514160,1877.860352 
	C3118.438965,1853.897339 3118.264160,1829.871704 3117.891113,1805.884277 
	C3117.523438,1782.253784 3116.915527,1758.593506 3115.276611,1735.025269 
	C3113.525146,1709.836914 3110.902588,1684.684448 3107.802246,1659.622314 
	C3105.274414,1639.190308 3101.481934,1618.914551 3098.062744,1596.854492 
M2603.434326,2910.432373 
	C2699.582764,2836.814941 2783.051025,2750.799316 2856.125000,2654.306641 
	C2912.166016,2580.305908 2952.386719,2498.736816 2976.968750,2409.456299 
	C2997.737061,2334.027832 3004.405029,2257.612549 2990.200928,2180.045410 
	C2974.517090,2094.399902 2936.311523,2019.628052 2876.867920,1956.855225 
	C2789.939941,1865.059082 2680.982910,1821.651245 2555.337158,1818.986694 
	C2516.803467,1818.169434 2479.045898,1824.345093 2442.047607,1835.148315 
	C2391.162354,1850.006470 2343.971191,1872.864380 2299.337891,1901.183228 
	C2281.067627,1912.775269 2262.666016,1924.182007 2246.980225,1939.423218 
	C2221.528076,1964.154175 2199.034912,1991.285278 2179.666992,2020.988403 
	C2116.142090,2118.412598 2088.716309,2225.794922 2091.521240,2341.474609 
	C2091.860596,2355.462402 2092.762695,2369.456055 2092.552979,2383.434082 
	C2092.021484,2418.897217 2086.376221,2453.729248 2077.934082,2488.090332 
	C2060.272949,2559.975830 2030.162964,2625.947754 1981.484253,2682.243164 
	C1942.929688,2726.830322 1898.266235,2764.898926 1849.044556,2797.306396 
	C1749.373047,2862.929688 1640.147583,2886.599609 1522.186035,2869.507324 
	C1465.843506,2861.343262 1411.979370,2844.315918 1360.105591,2821.073975 
	C1338.865356,2811.557129 1318.075928,2801.034668 1297.273315,2791.061768 
	C1192.627197,2836.495605 1084.227173,2844.544922 972.564148,2824.295166 
	C975.918396,2828.568359 979.460083,2831.946289 983.146118,2835.158691 
	C1018.094238,2865.613037 1054.529785,2894.189941 1092.173950,2921.226074 
	C1189.659302,2991.239990 1292.983643,3050.775635 1404.659058,3095.340332 
	C1513.848145,3138.913086 1627.372192,3162.713623 1744.540527,3169.590088 
	C1785.796509,3172.011230 1827.122559,3172.858154 1868.414673,3170.100830 
	C1897.987793,3168.125977 1927.649902,3166.714111 1957.057983,3163.238281 
	C1991.742310,3159.138428 2026.199097,3153.107178 2060.748047,3147.869385 
	C2095.965820,3142.530762 2130.914307,3135.921631 2165.382080,3126.777100 
	C2325.506592,3084.296143 2470.600830,3011.394531 2603.434326,2910.432373 
z"/>
<path fill="#2A3D9B" opacity="1.000000" stroke="none" 
	d="
M610.028809,2263.954102 
	C590.390198,2206.066406 575.231873,2147.819336 563.969299,2088.542236 
	C556.132629,2047.295898 550.263611,2005.759888 546.650635,1963.953979 
	C541.654053,1906.137329 540.408264,1848.228394 543.334717,1790.213135 
	C545.299805,1751.256226 548.634338,1712.445923 554.315735,1673.889526 
	C566.285828,1592.656860 584.451111,1512.976685 615.262939,1436.534302 
	C630.443359,1398.872437 643.838440,1360.444336 660.192993,1323.310425 
	C715.723755,1197.224365 789.385437,1082.941772 884.943848,983.189453 
	C938.885437,926.880310 998.689575,877.577698 1063.104248,833.823608 
	C1178.663574,755.329102 1302.931641,694.257935 1434.978149,648.874634 
	C1438.046509,647.820068 1441.214844,647.056152 1446.262085,645.601868 
	C1440.811035,652.162476 1436.623901,657.193787 1432.445312,662.232117 
	C1374.827881,731.705566 1335.747925,810.242371 1317.205200,898.725769 
	C1314.478638,911.736755 1312.590210,924.953674 1310.999878,938.157959 
	C1310.330688,943.713745 1308.106934,947.011475 1303.428345,949.883789 
	C1275.571777,966.984985 1248.883057,985.784363 1223.504761,1006.393372 
	C1158.784790,1058.950806 1105.085449,1120.453003 1069.546753,1196.640259 
	C1047.949951,1242.939331 1034.743896,1291.502563 1029.725098,1342.357300 
	C1023.674744,1403.664917 1030.093994,1463.955200 1042.880005,1523.941284 
	C1051.954834,1566.516357 1064.686157,1607.663452 1085.116943,1646.223755 
	C1123.477051,1718.622681 1177.537476,1777.088135 1244.158569,1824.157837 
	C1257.158203,1833.342651 1271.080933,1841.422852 1285.237061,1848.736572 
	C1373.658813,1894.418457 1447.723022,1956.397827 1502.917480,2039.797241 
	C1535.546143,2089.099609 1559.945557,2142.150879 1572.634888,2200.119385 
	C1575.395630,2212.730957 1576.791016,2225.778564 1577.420898,2238.693604 
	C1579.207397,2275.321533 1579.446411,2311.974121 1575.632812,2348.527832 
	C1566.315430,2437.838867 1533.908936,2517.315918 1475.051025,2585.679199 
	C1411.537109,2659.450439 1332.928101,2708.574707 1238.014160,2730.729736 
	C1218.968140,2735.175537 1199.326172,2737.400146 1179.837036,2739.537354 
	C1151.620605,2742.631348 1123.274658,2742.563232 1095.012695,2739.692871 
	C1045.577026,2734.671875 998.254944,2721.880127 953.170959,2700.827393 
	C887.580811,2670.198975 831.893738,2626.332520 783.035583,2573.454346 
	C737.780640,2524.475830 699.475769,2470.470947 669.645386,2410.800049 
	C646.841492,2365.184082 628.400024,2317.667480 611.916931,2269.409424 
	C611.379639,2267.836182 610.804077,2266.275879 610.028809,2263.954102 
M1361.580811,2027.410400 
	C1342.500610,2008.654419 1321.882812,1991.821777 1298.994141,1977.900757 
	C1224.552612,1932.625977 1144.080322,1916.235107 1058.281372,1930.846191 
	C976.907593,1944.703857 908.343140,1983.148560 854.632141,2046.099121 
	C789.643616,2122.268066 762.659729,2210.991211 772.767883,2310.401123 
	C778.742432,2369.158203 799.493347,2422.990479 833.972412,2471.091553 
	C894.190430,2555.099854 976.305176,2602.642334 1078.480591,2615.634033 
	C1115.104126,2620.290771 1151.643066,2618.130127 1187.766846,2610.219482 
	C1274.045654,2591.325928 1343.740479,2546.507812 1396.058105,2475.421631 
	C1432.987061,2425.244629 1454.186035,2368.754883 1460.509766,2306.670898 
	C1466.294067,2249.884521 1458.530151,2195.071289 1437.239380,2142.180420 
	C1419.973755,2099.289062 1394.787842,2061.537598 1361.580811,2027.410400 
z"/>
<path fill="#ED1C24" opacity="1.000000" stroke="none" 
	d="
M3098.156494,1597.712036 
	C3101.481934,1618.914551 3105.274414,1639.190308 3107.802246,1659.622314 
	C3110.902588,1684.684448 3113.525146,1709.836914 3115.276611,1735.025269 
	C3116.915527,1758.593506 3117.523438,1782.253784 3117.891113,1805.884277 
	C3118.264160,1829.871704 3118.438965,1853.897339 3117.514160,1877.860352 
	C3116.437012,1905.764771 3114.475586,1933.652954 3112.151123,1961.485840 
	C3109.911377,1988.307251 3107.593506,2015.176025 3103.729492,2041.794556 
	C3098.719727,2076.308105 3092.151123,2110.595459 3086.222412,2144.974609 
	C3085.965088,2146.466064 3085.394775,2147.903320 3083.243408,2149.658936 
	C3080.821045,2143.369629 3078.335938,2137.103760 3075.985840,2130.787109 
	C3052.526123,2067.728027 3019.309326,2010.456177 2975.020996,1959.661377 
	C2952.391113,1933.707397 2927.868164,1909.807495 2900.002197,1889.532715 
	C2895.368408,1886.161255 2893.898438,1882.686890 2893.658691,1877.206665 
	C2891.286865,1822.959229 2885.596191,1769.140747 2872.005859,1716.386963 
	C2855.041016,1650.535522 2827.929932,1589.481689 2786.644531,1535.087646 
	C2750.744629,1487.789185 2706.899170,1449.465088 2656.041992,1418.961426 
	C2611.489014,1392.239014 2563.434082,1373.860107 2514.165527,1358.084717 
	C2469.062012,1343.643066 2423.036865,1336.872437 2375.673096,1337.413940 
	C2307.818848,1338.189697 2243.313721,1353.460815 2180.884277,1379.337769 
	C2154.547119,1390.254395 2130.849854,1405.600220 2106.588867,1420.157104 
	C2049.584717,1454.360840 1988.551514,1478.584717 1923.271240,1491.428345 
	C1898.173950,1496.366211 1872.736450,1499.045776 1847.089600,1500.490845 
	C1789.329102,1503.745483 1732.917603,1497.111572 1677.718872,1480.107666 
	C1652.714111,1472.405151 1630.336792,1458.977783 1607.666992,1446.343628 
	C1575.291992,1428.300781 1544.746704,1407.475586 1516.849365,1383.061035 
	C1479.746948,1350.590332 1447.556274,1313.947388 1424.073242,1270.192505 
	C1400.441040,1226.159912 1383.649048,1179.709717 1374.637085,1130.529297 
	C1368.247437,1095.658691 1366.109497,1060.401001 1368.559937,1025.113281 
	C1371.826782,978.068787 1381.331299,932.243286 1400.109985,888.691406 
	C1420.419312,841.589722 1446.319580,798.061401 1480.754517,759.680664 
	C1515.410278,721.053955 1555.817993,690.048157 1601.220093,665.261658 
	C1654.863892,635.975830 1712.121582,617.119751 1772.023926,605.808289 
	C1807.362061,599.135376 1842.897827,594.337158 1878.916382,593.622925 
	C1895.215942,593.299683 1911.577393,591.550781 1927.791504,592.496277 
	C1954.646484,594.062256 1981.499390,596.555481 2008.178589,600.006775 
	C2036.820190,603.711914 2065.358398,608.438843 2093.769287,613.659302 
	C2167.558594,627.218201 2239.325195,648.106750 2309.416504,674.777405 
	C2373.646484,699.217834 2435.459229,728.714233 2494.945312,763.173035 
	C2544.020264,791.600952 2590.912354,823.203857 2635.757812,857.882263 
	C2684.608643,895.657898 2731.121582,936.222473 2772.252686,982.238831 
	C2806.390137,1020.431091 2838.604492,1060.427490 2870.270996,1100.724731 
	C2923.944580,1169.027710 2969.317871,1242.685547 3007.173340,1320.889771 
	C3027.495361,1362.872559 3045.077393,1405.998169 3060.013672,1450.221680 
	C3075.900146,1497.258423 3088.282471,1545.178589 3097.787598,1593.873535 
	C3097.977539,1594.848022 3097.975342,1595.859985 3098.156494,1597.712036 
M2153.657227,903.397949 
	C2082.756104,754.656494 1921.004761,676.657715 1761.377319,713.671021 
	C1616.566406,747.248779 1500.431641,875.201538 1494.709961,1039.165649 
	C1492.551880,1101.010864 1506.283325,1159.489624 1535.697510,1214.064697 
	C1607.371216,1347.047729 1756.750977,1420.429321 1910.491577,1389.158203 
	C1982.037720,1374.605835 2042.850708,1339.932983 2092.966309,1286.678345 
	C2189.232178,1184.382690 2213.746094,1031.656738 2153.657227,903.397949 
z"/>
<path fill="#FFFFFE" opacity="1.000000" stroke="none" 
	d="
M2602.873047,2910.877441 
	C2470.600830,3011.394531 2325.506592,3084.296143 2165.382080,3126.777100 
	C2130.914307,3135.921631 2095.965820,3142.530762 2060.748047,3147.869385 
	C2026.199097,3153.107178 1991.742310,3159.138428 1957.057983,3163.238281 
	C1927.649902,3166.714111 1897.987793,3168.125977 1868.414673,3170.100830 
	C1827.122559,3172.858154 1785.796509,3172.011230 1744.540527,3169.590088 
	C1627.372192,3162.713623 1513.848145,3138.913086 1404.659058,3095.340332 
	C1292.983643,3050.775635 1189.659302,2991.239990 1092.173950,2921.226074 
	C1054.529785,2894.189941 1018.094238,2865.613037 983.146118,2835.158691 
	C979.460083,2831.946289 975.918396,2828.568359 972.564148,2824.295166 
	C1084.227173,2844.544922 1192.627197,2836.495605 1297.273315,2791.061768 
	C1318.075928,2801.034668 1338.865356,2811.557129 1360.105591,2821.073975 
	C1411.979370,2844.315918 1465.843506,2861.343262 1522.186035,2869.507324 
	C1640.147583,2886.599609 1749.373047,2862.929688 1849.044556,2797.306396 
	C1898.266235,2764.898926 1942.929688,2726.830322 1981.484253,2682.243164 
	C2030.162964,2625.947754 2060.272949,2559.975830 2077.934082,2488.090332 
	C2086.376221,2453.729248 2092.021484,2418.897217 2092.552979,2383.434082 
	C2092.762695,2369.456055 2091.860596,2355.462402 2091.521240,2341.474609 
	C2088.716309,2225.794922 2116.142090,2118.412598 2179.666992,2020.988403 
	C2199.034912,1991.285278 2221.528076,1964.154175 2246.980225,1939.423218 
	C2262.666016,1924.182007 2281.067627,1912.775269 2299.337891,1901.183228 
	C2343.971191,1872.864380 2391.162354,1850.006470 2442.047607,1835.148315 
	C2479.045898,1824.345093 2516.803467,1818.169434 2555.337158,1818.986694 
	C2680.982910,1821.651245 2789.939941,1865.059082 2876.867920,1956.855225 
	C2936.311523,2019.628052 2974.517090,2094.399902 2990.200928,2180.045410 
	C3004.405029,2257.612549 2997.737061,2334.027832 2976.968750,2409.456299 
	C2952.386719,2498.736816 2912.166016,2580.305908 2856.125000,2654.306641 
	C2783.051025,2750.799316 2699.582764,2836.814941 2602.873047,2910.877441 
M2738.024414,2003.002319 
	C2663.155518,1953.599854 2581.368408,1934.734863 2492.514893,1947.855591 
	C2431.208984,1956.908203 2375.598877,1980.228394 2328.124512,2019.962280 
	C2229.458008,2102.541504 2186.606934,2208.495361 2202.044434,2336.501465 
	C2211.017822,2410.905762 2242.853760,2475.509033 2294.930664,2529.284424 
	C2355.693604,2592.028809 2430.089600,2627.248047 2517.402100,2634.419189 
	C2582.091064,2639.732178 2643.515869,2627.430664 2701.121826,2597.963379 
	C2839.828125,2527.011963 2913.667969,2376.087891 2883.705322,2223.358643 
	C2865.561523,2130.873291 2816.707764,2057.697754 2738.024414,2003.002319 
z"/>
<path fill="#ED1C24" opacity="1.000000" stroke="none" 
	d="
M1362.083740,2027.914307 
	C1394.787842,2061.537598 1419.973755,2099.289062 1437.239380,2142.180420 
	C1458.530151,2195.071289 1466.294067,2249.884521 1460.509766,2306.670898 
	C1454.186035,2368.754883 1432.987061,2425.244629 1396.058105,2475.421631 
	C1343.740479,2546.507812 1274.045654,2591.325928 1187.766846,2610.219482 
	C1151.643066,2618.130127 1115.104126,2620.290771 1078.480591,2615.634033 
	C976.305176,2602.642334 894.190430,2555.099854 833.972412,2471.091553 
	C799.493347,2422.990479 778.742432,2369.158203 772.767883,2310.401123 
	C762.659729,2210.991211 789.643616,2122.268066 854.632141,2046.099121 
	C908.343140,1983.148560 976.907593,1944.703857 1058.281372,1930.846191 
	C1144.080322,1916.235107 1224.552612,1932.625977 1298.994141,1977.900757 
	C1321.882812,1991.821777 1342.500610,2008.654419 1362.083740,2027.914307 
z"/>
<path fill="#FFFFFF" opacity="1.000000" stroke="none" 
	d="
M2153.935059,904.098022 
	C2213.746094,1031.656738 2189.232178,1184.382690 2092.966309,1286.678345 
	C2042.850708,1339.932983 1982.037720,1374.605835 1910.491577,1389.158203 
	C1756.750977,1420.429321 1607.371216,1347.047729 1535.697510,1214.064697 
	C1506.283325,1159.489624 1492.551880,1101.010864 1494.709961,1039.165649 
	C1500.431641,875.201538 1616.566406,747.248779 1761.377319,713.671021 
	C1921.004761,676.657715 2082.756104,754.656494 2153.935059,904.098022 
z"/>
<path fill="#293D9B" opacity="1.000000" stroke="none" 
	d="
M2738.616699,2003.414673 
	C2816.707764,2057.697754 2865.561523,2130.873291 2883.705322,2223.358643 
	C2913.667969,2376.087891 2839.828125,2527.011963 2701.121826,2597.963379 
	C2643.515869,2627.430664 2582.091064,2639.732178 2517.402100,2634.419189 
	C2430.089600,2627.248047 2355.693604,2592.028809 2294.930664,2529.284424 
	C2242.853760,2475.509033 2211.017822,2410.905762 2202.044434,2336.501465 
	C2186.606934,2208.495361 2229.458008,2102.541504 2328.124512,2019.962280 
	C2375.598877,1980.228394 2431.208984,1956.908203 2492.514893,1947.855591 
	C2581.368408,1934.734863 2663.155518,1953.599854 2738.616699,2003.414673 
z"/>
</svg>